<?xml version="1.0" encoding="utf-8"?>
<!-- Generator: Adobe Illustrator 19.2.1, SVG Export Plug-In . SVG Version: 6.00 Build 0)  -->
<svg version="1.1" xmlns="http://www.w3.org/2000/svg" xmlns:xlink="http://www.w3.org/1999/xlink" x="0px" y="0px"
	 viewBox="0 0 748 408" style="enable-background:new 0 0 748 408;" xml:space="preserve">
<style type="text/css">
	.st0{fill:none;stroke:#2F7EB2;stroke-width:6;stroke-linecap:round;stroke-linejoin:round;}
	.st1{fill:#2F7EB2;}
	.st2{fill:#E3E1DC;}
	.st3{fill:#474747;}
	.st4{fill:none;stroke:#474747;stroke-width:2;stroke-linejoin:round;}
	.st5{fill:none;stroke:#474747;stroke-width:2;stroke-miterlimit:10;}
	.st6{fill:#D78825;}
	.st7{fill:none;stroke:#D78825;stroke-width:8;stroke-miterlimit:10;}
	.st8{fill:none;stroke:#307FB2;stroke-width:6;stroke-linecap:round;stroke-linejoin:round;stroke-dasharray:0,11;}
	.st9{fill:#307FB2;}
	.st10{fill:none;stroke:#474747;stroke-width:4;stroke-linejoin:round;stroke-miterlimit:10;}
	.st11{fill:#E3E1DC;stroke:#474747;stroke-linejoin:round;stroke-miterlimit:10;}
	.st12{fill:none;stroke:#474747;stroke-linejoin:round;stroke-miterlimit:10;}
	.st13{fill:none;stroke:#474747;stroke-miterlimit:10;}
	.st14{fill:#C1D8E8;}
	.st15{fill:#2E7EB2;}
	.st16{font-family:'Arial-BoldMT';}
	.st17{font-size:3.8117px;}
	.st18{fill:#FFFFFF;stroke:#474747;stroke-width:4;stroke-linejoin:round;stroke-miterlimit:10;}
	.st19{fill:#FFFFFF;stroke:#474747;stroke-linejoin:round;stroke-miterlimit:10;}
	.st20{fill:none;stroke:#474747;stroke-width:4;stroke-miterlimit:10;}
	.st21{fill:none;stroke:#2F7EB2;stroke-width:4;stroke-linecap:round;stroke-linejoin:round;stroke-miterlimit:10;}
	.st22{fill:#276092;}
</style>
<g id="Layer_1">
	<g>
		<g>
			<line class="st0" x1="219.3" y1="272" x2="511.5" y2="272"/>
			<g>
				<polygon class="st1" points="220.5,262.9 220.5,281.1 211.4,272 				"/>
			</g>
			<g>
				<polygon class="st1" points="510.3,262.9 510.3,281.1 519.4,272 				"/>
			</g>
		</g>
	</g>
	<path class="st2" d="M520.6,140.2c0-29.4-23.8-53.2-53.2-53.2c-0.7,0-1.3,0-2,0.1c-6.4-19.3-23.6-33.7-44.4-36
		C412.9,32.2,394.1,19,372.2,19c-17,0-32.2,8-41.9,20.5c-6.6-2.9-13.9-4.6-21.6-4.6c-29.4,0-53.2,23.8-53.2,53.2c0,0.6,0,1.1,0,1.6
		c-21.2,7-36.6,26.9-36.6,50.5c0,27.5,20.9,50.1,47.6,52.9v0.3H473l0-0.3C499.8,190.3,520.6,167.7,520.6,140.2z"/>
	<g>
		<path class="st3" d="M280.8,116.2h3.4c3.5,0,5.8,2.6,5.8,6.1c0,3.4-2.4,6-5.8,6h-3.3V116.2z M283.1,126.2h0.4c2.9,0,4-1.6,4-4
			c0-2.6-1.3-4-4-4h-0.4V126.2z"/>
		<path class="st3" d="M294.7,125.7l-1,2.5h-2.5l4.7-12.4h1.8l4.6,12.4h-2.5l-0.9-2.5H294.7z M296.7,119.4L296.7,119.4l-1.4,4.4h2.9
			L296.7,119.4z"/>
		<path class="st3" d="M307.8,128.3h-2.4v-10H303v-2h7.2v2h-2.4V128.3z"/>
		<path class="st3" d="M314.4,125.7l-1,2.5H311l4.7-12.4h1.8l4.6,12.4h-2.5l-0.9-2.5H314.4z M316.5,119.4L316.5,119.4l-1.4,4.4h2.9
			L316.5,119.4z"/>
		<path class="st3" d="M333.4,125.7l-1,2.5h-2.5l4.7-12.4h1.8l4.6,12.4h-2.5l-0.9-2.5H333.4z M335.4,119.4L335.4,119.4l-1.4,4.4h2.9
			L335.4,119.4z"/>
		<path class="st3" d="M353.5,121.9v0.3c0,3.4-1.7,6.4-5.5,6.4c-3.5,0-5.7-3-5.7-6.3c0-3.4,2.3-6.4,5.9-6.4c2,0,3.8,1,4.8,2.9
			l-2.1,1.1c-0.5-1.1-1.5-1.9-2.8-1.9c-2.3,0-3.4,2.3-3.4,4.3s1.1,4.2,3.4,4.2c1.5,0,2.7-1.3,2.8-2.7h-2.6v-1.9H353.5z"/>
		<path class="st3" d="M367.1,121.9v0.3c0,3.4-1.7,6.4-5.5,6.4c-3.5,0-5.7-3-5.7-6.3c0-3.4,2.3-6.4,5.9-6.4c2,0,3.8,1,4.8,2.9
			l-2.1,1.1c-0.5-1.1-1.5-1.9-2.8-1.9c-2.3,0-3.4,2.3-3.4,4.3s1.1,4.2,3.4,4.2c1.5,0,2.7-1.3,2.8-2.7h-2.6v-1.9H367.1z"/>
		<path class="st3" d="M378.1,128.3h-2.8l-2.9-4.9h0v4.9h-2.4v-12.1h3.2c2.4,0,4,1.1,4,3.6c0,1.5-0.8,3.1-2.5,3.3L378.1,128.3z
			 M372.3,121.8h0.3c1.3,0,2.2-0.4,2.2-1.9c0-1.5-0.9-1.8-2.2-1.8h-0.3V121.8z"/>
		<path class="st3" d="M382.8,118.3v2.7h3.7v2h-3.7v3.3h3.9v2h-6.2v-12.1h6.2v2H382.8z"/>
		<path class="st3" d="M400.4,121.9v0.3c0,3.4-1.7,6.4-5.5,6.4c-3.5,0-5.7-3-5.7-6.3c0-3.4,2.3-6.4,5.9-6.4c2,0,3.8,1,4.8,2.9
			l-2.1,1.1c-0.5-1.1-1.5-1.9-2.8-1.9c-2.3,0-3.4,2.3-3.4,4.3s1.1,4.2,3.4,4.2c1.5,0,2.7-1.3,2.8-2.7h-2.6v-1.9H400.4z"/>
		<path class="st3" d="M405.2,125.7l-1,2.5h-2.5l4.7-12.4h1.8l4.6,12.4h-2.5l-0.9-2.5H405.2z M407.2,119.4L407.2,119.4l-1.4,4.4h2.9
			L407.2,119.4z"/>
		<path class="st3" d="M418.3,128.3H416v-10h-2.4v-2h7.2v2h-2.4V128.3z"/>
		<path class="st3" d="M425.6,128.3h-2.4v-12.1h2.4V128.3z"/>
		<path class="st3" d="M434.4,128.6c-3.7,0-6-2.8-6-6.4c0-3.6,2.4-6.3,6-6.3s6,2.8,6,6.3C440.3,125.8,438.1,128.6,434.4,128.6z
			 M434.4,118.2c-2.2,0-3.5,2-3.5,3.9c0,1.9,0.9,4.1,3.5,4.1c2.6,0,3.5-2.3,3.5-4.1C437.9,120.2,436.6,118.2,434.4,118.2z"/>
		<path class="st3" d="M443.2,115.9h1.7l6.4,8.4h0v-8.1h2.4v12.3h-1.7l-6.4-8.4h0v8.2h-2.4V115.9z"/>
		<path class="st3" d="M283.2,144.9l-1,2.5h-2.5l4.7-12.4h1.8l4.6,12.4h-2.5l-0.9-2.5H283.2z M285.3,138.6L285.3,138.6l-1.4,4.4h2.9
			L285.3,138.6z"/>
		<path class="st3" d="M293.2,135.1h1.7l6.4,8.4h0v-8.1h2.4v12.3H302l-6.4-8.4h0v8.2h-2.4V135.1z"/>
		<path class="st3" d="M307.1,135.4h3.4c3.5,0,5.8,2.6,5.8,6.1c0,3.4-2.4,6-5.8,6h-3.3V135.4z M309.4,145.4h0.4c2.9,0,4-1.6,4-4
			c0-2.6-1.3-4-4-4h-0.4V145.4z"/>
		<path class="st3" d="M328,144.9l-1,2.5h-2.5l4.7-12.4h1.8l4.6,12.4h-2.5l-0.9-2.5H328z M330.1,138.6L330.1,138.6l-1.4,4.4h2.9
			L330.1,138.6z"/>
		<path class="st3" d="M338.1,135.1h1.7l6.4,8.4h0v-8.1h2.4v12.3h-1.7l-6.4-8.4h0v8.2h-2.4V135.1z"/>
		<path class="st3" d="M354.3,144.9l-1,2.5h-2.5l4.7-12.4h1.8l4.6,12.4h-2.5l-0.9-2.5H354.3z M356.4,138.6L356.4,138.6L355,143h2.9
			L356.4,138.6z"/>
		<path class="st3" d="M366.7,145.4h3.3v2h-5.7v-12.1h2.4V145.4z"/>
		<path class="st3" d="M370.1,135.4h2.7l2.1,4.2l2.3-4.2h2.8l-3.8,6.5v5.5h-2.4v-5.5L370.1,135.4z"/>
		<path class="st3" d="M386.5,147.5h-2.4v-10h-2.4v-2h7.2v2h-2.4V147.5z"/>
		<path class="st3" d="M393.7,147.5h-2.4v-12.1h2.4V147.5z"/>
		<path class="st3" d="M405.2,138.6c-0.7-0.8-1.6-1.3-2.7-1.3c-2.3,0-3.6,2.1-3.6,4.2c0,2,1.3,4.1,3.5,4.1c1,0,2-0.5,2.7-1.3v2.8
			c-0.9,0.4-1.8,0.7-2.7,0.7c-3.4,0-5.9-2.9-5.9-6.3c0-3.4,2.4-6.5,6-6.5c0.9,0,1.9,0.3,2.7,0.7V138.6z"/>
		<path class="st3" d="M413.9,138.1c-0.4-0.6-1-1-1.8-1c-0.8,0-1.5,0.6-1.5,1.4c0,2,4.8,1.2,4.8,5.2c0,2.4-1.5,4.1-4,4.1
			c-1.7,0-2.9-1-3.7-2.4l1.5-1.5c0.3,0.9,1.2,1.8,2.2,1.8c1,0,1.6-0.8,1.6-1.7c0-1.2-1.2-1.6-2.1-2c-1.6-0.6-2.7-1.4-2.7-3.3
			c0-2,1.5-3.6,3.5-3.6c1.1,0,2.6,0.5,3.3,1.3L413.9,138.1z"/>
	</g>
	<g>
		<g>
			<polyline class="st4" points="84,245.4 84,216 49,216 			"/>
			<g>
				<polygon class="st3" points="81,245 87,245 84,248 				"/>
			</g>
		</g>
	</g>
	<g>
		<g>
			<polyline class="st0" points="256.1,49 138.3,49 138.3,216.1 			"/>
			<g>
				<polygon class="st1" points="254.9,58.1 254.9,39.9 264,49 				"/>
			</g>
			<g>
				<polygon class="st1" points="147.4,214.9 129.2,214.9 138.3,224 				"/>
			</g>
		</g>
	</g>
	<g>
		<path class="st3" d="M126.5,310.1c-0.4-0.6-1-1-1.8-1c-0.8,0-1.5,0.6-1.5,1.4c0,2,4.8,1.2,4.8,5.2c0,2.4-1.5,4.1-4,4.1
			c-1.7,0-2.9-1-3.7-2.4l1.5-1.5c0.3,0.9,1.2,1.8,2.2,1.8c1,0,1.6-0.8,1.6-1.7c0-1.2-1.2-1.6-2.1-2c-1.6-0.6-2.7-1.4-2.7-3.3
			c0-2,1.5-3.6,3.5-3.6c1.1,0,2.6,0.5,3.3,1.3L126.5,310.1z"/>
		<path class="st3" d="M139.8,312L139.8,312l-2.8,7.7h-0.8l-2.6-7.7h0l-1.1,7.5h-2.4l2-12.4h1.7l3,8l2.8-8h1.7l1.8,12.4h-2.4
			L139.8,312z"/>
		<path class="st3" d="M148.6,317l-1,2.5h-2.5l4.7-12.4h1.8l4.6,12.4h-2.5l-0.9-2.5H148.6z M150.7,310.7L150.7,310.7l-1.4,4.4h2.9
			L150.7,310.7z"/>
		<path class="st3" d="M166.8,319.5H164l-2.9-4.9h0v4.9h-2.4v-12.1h3.2c2.4,0,4,1.1,4,3.6c0,1.5-0.8,3.1-2.5,3.3L166.8,319.5z
			 M161,313h0.3c1.3,0,2.2-0.4,2.2-1.9c0-1.5-0.9-1.8-2.2-1.8H161V313z"/>
		<path class="st3" d="M173,319.5h-2.4v-10h-2.4v-2h7.2v2H173V319.5z"/>
		<path class="st3" d="M192.5,310.7c-0.7-0.8-1.6-1.3-2.7-1.3c-2.3,0-3.6,2.1-3.6,4.2c0,2,1.3,4.1,3.5,4.1c1,0,2-0.5,2.7-1.3v2.8
			c-0.9,0.4-1.8,0.7-2.7,0.7c-3.4,0-5.9-2.9-5.9-6.3c0-3.4,2.4-6.5,6-6.5c0.9,0,1.9,0.3,2.7,0.7V310.7z"/>
		<path class="st3" d="M200.8,319.8c-3.7,0-6-2.8-6-6.4c0-3.6,2.4-6.3,6-6.3c3.6,0,6,2.8,6,6.3C206.8,317,204.5,319.8,200.8,319.8z
			 M200.8,309.5c-2.2,0-3.5,2-3.5,3.9c0,1.9,0.9,4.1,3.5,4.1c2.6,0,3.5-2.3,3.5-4.1C204.4,311.4,203.1,309.5,200.8,309.5z"/>
		<path class="st3" d="M209.7,307.1h1.7l6.4,8.4h0v-8.1h2.4v12.3h-1.7l-6.4-8.4h0v8.2h-2.4V307.1z"/>
		<path class="st3" d="M223.5,307.1h1.7l6.4,8.4h0v-8.1h2.4v12.3h-1.7l-6.4-8.4h0v8.2h-2.4V307.1z"/>
		<path class="st3" d="M239.7,309.5v2.7h3.7v2h-3.7v3.3h3.9v2h-6.2v-12.1h6.2v2H239.7z"/>
		<path class="st3" d="M254.7,310.7c-0.7-0.8-1.6-1.3-2.7-1.3c-2.3,0-3.6,2.1-3.6,4.2c0,2,1.3,4.1,3.5,4.1c1,0,2-0.5,2.7-1.3v2.8
			c-0.9,0.4-1.8,0.7-2.7,0.7c-3.4,0-5.9-2.9-5.9-6.3c0-3.4,2.4-6.5,6-6.5c0.9,0,1.9,0.3,2.7,0.7V310.7z"/>
		<path class="st3" d="M261.9,319.5h-2.4v-10h-2.4v-2h7.2v2h-2.4V319.5z"/>
		<path class="st3" d="M269.1,309.5v2.7h3.7v2h-3.7v3.3h3.9v2h-6.2v-12.1h6.2v2H269.1z"/>
		<path class="st3" d="M276.2,307.5h3.4c3.5,0,5.8,2.6,5.8,6.1c0,3.4-2.4,6-5.8,6h-3.3V307.5z M278.5,317.5h0.4c2.9,0,4-1.6,4-4
			c0-2.6-1.3-4-4-4h-0.4V317.5z"/>
		<path class="st3" d="M294.6,307.5h3.4c3.5,0,5.8,2.6,5.8,6.1c0,3.4-2.4,6-5.8,6h-3.3V307.5z M297,317.5h0.4c2.9,0,4-1.6,4-4
			c0-2.6-1.3-4-4-4H297V317.5z"/>
		<path class="st3" d="M309,309.5v2.7h3.7v2H309v3.3h3.9v2h-6.2v-12.1h6.2v2H309z"/>
		<path class="st3" d="M320.5,315.6L320.5,315.6l2.7-8.1h2.5l-4.7,12.4h-1.4l-4.6-12.4h2.5L320.5,315.6z"/>
		<path class="st3" d="M330.3,319.5H328v-12.1h2.4V319.5z"/>
		<path class="st3" d="M341.8,310.7c-0.7-0.8-1.6-1.3-2.7-1.3c-2.3,0-3.6,2.1-3.6,4.2c0,2,1.3,4.1,3.5,4.1c1,0,2-0.5,2.7-1.3v2.8
			c-0.9,0.4-1.8,0.7-2.7,0.7c-3.4,0-5.9-2.9-5.9-6.3c0-3.4,2.4-6.5,6-6.5c0.9,0,1.9,0.3,2.7,0.7V310.7z"/>
		<path class="st3" d="M347.4,309.5v2.7h3.7v2h-3.7v3.3h3.9v2H345v-12.1h6.2v2H347.4z"/>
		<path class="st3" d="M360,310.1c-0.4-0.6-1-1-1.8-1c-0.8,0-1.5,0.6-1.5,1.4c0,2,4.8,1.2,4.8,5.2c0,2.4-1.5,4.1-4,4.1
			c-1.7,0-2.9-1-3.7-2.4l1.5-1.5c0.3,0.9,1.2,1.8,2.2,1.8c1,0,1.6-0.8,1.6-1.7c0-1.2-1.2-1.6-2.1-2c-1.6-0.6-2.7-1.4-2.7-3.3
			c0-2,1.5-3.6,3.5-3.6c1.1,0,2.6,0.5,3.3,1.3L360,310.1z"/>
	</g>
	<g>
		<g>
			<polyline class="st0" points="613,162.1 613,48 451.9,48 			"/>
			<g>
				<polygon class="st1" points="603.9,160.9 622.1,160.9 613,170 				"/>
			</g>
			<g>
				<polygon class="st1" points="453.1,57.1 453.1,38.9 444,48 				"/>
			</g>
		</g>
	</g>
	<g>
		<path class="st3" d="M499,363l-1,2.5h-2.5l4.7-12.4h1.8l4.6,12.4h-2.5l-0.9-2.5H499z M501,356.7L501,356.7l-1.4,4.4h2.9L501,356.7
			z"/>
		<path class="st3" d="M511.3,363.5h3.3v2H509v-12.1h2.4V363.5z"/>
		<path class="st3" d="M527.4,359.1v0.3c0,3.4-1.7,6.4-5.5,6.4c-3.5,0-5.7-3-5.7-6.3c0-3.4,2.3-6.4,5.9-6.4c2,0,3.8,1,4.8,2.9
			l-2.1,1.1c-0.5-1.1-1.5-1.9-2.8-1.9c-2.3,0-3.4,2.3-3.4,4.3s1.1,4.2,3.4,4.2c1.5,0,2.7-1.3,2.8-2.7h-2.6v-1.9H527.4z"/>
		<path class="st3" d="M535.7,365.8c-3.7,0-6-2.8-6-6.4c0-3.6,2.4-6.3,6-6.3s6,2.8,6,6.3C541.7,363,539.4,365.8,535.7,365.8z
			 M535.7,355.5c-2.2,0-3.5,2-3.5,3.9c0,1.9,0.9,4.1,3.5,4.1c2.6,0,3.5-2.3,3.5-4.1C539.3,357.4,538,355.5,535.7,355.5z"/>
		<path class="st3" d="M552.7,365.5h-2.8l-2.9-4.9h0v4.9h-2.4v-12.1h3.2c2.4,0,4,1.1,4,3.6c0,1.5-0.8,3.1-2.5,3.3L552.7,365.5z
			 M546.9,359h0.3c1.3,0,2.2-0.4,2.2-1.9c0-1.5-0.9-1.8-2.2-1.8h-0.3V359z"/>
		<path class="st3" d="M557.5,365.5h-2.4v-12.1h2.4V365.5z"/>
		<path class="st3" d="M564.7,365.5h-2.4v-10h-2.4v-2h7.2v2h-2.4V365.5z"/>
		<path class="st3" d="M576.3,358.2v-4.8h2.4v12.1h-2.4v-5.4h-4.4v5.4h-2.4v-12.1h2.4v4.8H576.3z"/>
		<path class="st3" d="M591,358L591,358l-2.8,7.7h-0.8l-2.6-7.7h0l-1.1,7.5h-2.4l2-12.4h1.7l3,8l2.8-8h1.7l1.8,12.4H592L591,358z"/>
		<path class="st3" d="M603.5,353.5h3.4c3.5,0,5.8,2.6,5.8,6.1c0,3.4-2.4,6-5.8,6h-3.3V353.5z M605.9,363.5h0.4c2.9,0,4-1.6,4-4
			c0-2.6-1.3-4-4-4h-0.4V363.5z"/>
		<path class="st3" d="M617.9,355.5v2.7h3.7v2h-3.7v3.3h3.9v2h-6.2v-12.1h6.2v2H617.9z"/>
		<path class="st3" d="M629.4,361.6L629.4,361.6l2.7-8.1h2.5l-4.7,12.4h-1.4l-4.6-12.4h2.5L629.4,361.6z"/>
		<path class="st3" d="M639.2,355.5v2.7h3.7v2h-3.7v3.3h3.9v2h-6.2v-12.1h6.2v2H639.2z"/>
		<path class="st3" d="M648.7,363.5h3.3v2h-5.7v-12.1h2.4V363.5z"/>
		<path class="st3" d="M659.5,365.8c-3.7,0-6-2.8-6-6.4c0-3.6,2.4-6.3,6-6.3s6,2.8,6,6.3C665.5,363,663.2,365.8,659.5,365.8z
			 M659.5,355.5c-2.2,0-3.5,2-3.5,3.9c0,1.9,0.9,4.1,3.5,4.1c2.6,0,3.5-2.3,3.5-4.1C663,357.4,661.7,355.5,659.5,355.5z"/>
		<path class="st3" d="M670.7,365.5h-2.4v-12.1h3.2c2.5,0,4.2,1,4.2,3.7c0,2.6-1.4,3.8-3.9,3.8h-1.2V365.5z M670.7,359.1h0.5
			c1.4,0,2.1-0.3,2.1-1.9c0-1.6-0.9-1.8-2.2-1.8h-0.4V359.1z"/>
		<path class="st3" d="M687,358L687,358l-2.8,7.7h-0.8l-2.6-7.7h0l-1.1,7.5h-2.4l2-12.4h1.7l3,8l2.8-8h1.7l1.8,12.4H688L687,358z"/>
		<path class="st3" d="M695.5,355.5v2.7h3.7v2h-3.7v3.3h3.9v2h-6.2v-12.1h6.2v2H695.5z"/>
		<path class="st3" d="M702.5,353.1h1.7l6.4,8.4h0v-8.1h2.4v12.3h-1.7l-6.4-8.4h0v8.2h-2.4V353.1z"/>
		<path class="st3" d="M720.2,365.5h-2.4v-10h-2.4v-2h7.2v2h-2.4V365.5z"/>
		<path class="st3" d="M502.2,375.3c-0.4-0.6-1-1-1.8-1c-0.8,0-1.5,0.6-1.5,1.4c0,2,4.8,1.2,4.8,5.2c0,2.4-1.5,4.1-4,4.1
			c-1.7,0-2.9-1-3.7-2.4l1.5-1.5c0.3,0.9,1.2,1.8,2.2,1.8c1,0,1.6-0.8,1.6-1.7c0-1.2-1.2-1.6-2.1-2c-1.6-0.6-2.7-1.4-2.7-3.3
			c0-2,1.5-3.6,3.5-3.6c1.1,0,2.6,0.5,3.3,1.3L502.2,375.3z"/>
		<path class="st3" d="M508.8,374.7v2.7h3.7v2h-3.7v3.3h3.9v2h-6.2v-12.1h6.2v2H508.8z"/>
		<path class="st3" d="M515.9,372.3h1.7l6.4,8.4h0v-8.1h2.4V385h-1.7l-6.4-8.4h0v8.2h-2.4V372.3z"/>
		<path class="st3" d="M535.2,375.3c-0.4-0.6-1-1-1.8-1c-0.8,0-1.5,0.6-1.5,1.4c0,2,4.8,1.2,4.8,5.2c0,2.4-1.5,4.1-4,4.1
			c-1.7,0-2.9-1-3.7-2.4l1.5-1.5c0.3,0.9,1.2,1.8,2.2,1.8c1,0,1.6-0.8,1.6-1.7c0-1.2-1.2-1.6-2.1-2c-1.6-0.6-2.7-1.4-2.7-3.3
			c0-2,1.5-3.6,3.5-3.6c1.1,0,2.6,0.5,3.3,1.3L535.2,375.3z"/>
		<path class="st3" d="M545,385c-3.7,0-6-2.8-6-6.4c0-3.6,2.4-6.3,6-6.3s6,2.8,6,6.3C551,382.2,548.7,385,545,385z M545,374.7
			c-2.2,0-3.5,2-3.5,3.9c0,1.9,0.9,4.1,3.5,4.1c2.6,0,3.5-2.3,3.5-4.1C548.5,376.6,547.2,374.7,545,374.7z"/>
		<path class="st3" d="M562,384.7h-2.8l-2.9-4.9h0v4.9h-2.4v-12.1h3.2c2.4,0,4,1.1,4,3.6c0,1.5-0.8,3.1-2.5,3.3L562,384.7z
			 M556.2,378.2h0.3c1.3,0,2.2-0.4,2.2-1.9c0-1.5-0.9-1.8-2.2-1.8h-0.3V378.2z"/>
		<path class="st3" d="M573.3,382.2l-1,2.5h-2.5l4.7-12.4h1.8l4.6,12.4h-2.5l-0.9-2.5H573.3z M575.4,375.9L575.4,375.9l-1.4,4.4h2.9
			L575.4,375.9z"/>
		<path class="st3" d="M583.4,372.3h1.7l6.4,8.4h0v-8.1h2.4V385h-1.7l-6.4-8.4h0v8.2h-2.4V372.3z"/>
		<path class="st3" d="M599.6,382.2l-1,2.5h-2.5l4.7-12.4h1.8l4.6,12.4h-2.5l-0.9-2.5H599.6z M601.7,375.9L601.7,375.9l-1.4,4.4h2.9
			L601.7,375.9z"/>
		<path class="st3" d="M612,382.7h3.3v2h-5.7v-12.1h2.4V382.7z"/>
		<path class="st3" d="M615.4,372.7h2.7l2.1,4.2l2.3-4.2h2.8l-3.8,6.5v5.5h-2.4v-5.5L615.4,372.7z"/>
		<path class="st3" d="M631.8,384.7h-2.4v-10H627v-2h7.2v2h-2.4V384.7z"/>
		<path class="st3" d="M639,384.7h-2.4v-12.1h2.4V384.7z"/>
		<path class="st3" d="M650.5,375.9c-0.7-0.8-1.6-1.3-2.7-1.3c-2.3,0-3.6,2.1-3.6,4.2c0,2,1.3,4.1,3.5,4.1c1,0,2-0.5,2.7-1.3v2.8
			c-0.9,0.4-1.8,0.7-2.7,0.7c-3.4,0-5.9-2.9-5.9-6.3c0-3.4,2.4-6.5,6-6.5c0.9,0,1.9,0.3,2.7,0.7V375.9z"/>
		<path class="st3" d="M659.2,375.3c-0.4-0.6-1-1-1.8-1c-0.8,0-1.5,0.6-1.5,1.4c0,2,4.8,1.2,4.8,5.2c0,2.4-1.5,4.1-4,4.1
			c-1.7,0-2.9-1-3.7-2.4l1.5-1.5c0.3,0.9,1.2,1.8,2.2,1.8c1,0,1.6-0.8,1.6-1.7c0-1.2-1.2-1.6-2.1-2c-1.6-0.6-2.7-1.4-2.7-3.3
			c0-2,1.5-3.6,3.5-3.6c1.1,0,2.6,0.5,3.3,1.3L659.2,375.3z"/>
	</g>
	<g>
		<circle class="st3" cx="180" cy="246" r="4"/>
		<g>
			<path class="st3" d="M187.1,239.9c-0.3,0-0.5-0.1-0.7-0.3c-3.5-3.5-9.2-3.5-12.7,0c-0.4,0.4-1,0.4-1.4,0s-0.4-1,0-1.4
				c4.3-4.3,11.3-4.3,15.6,0c0.4,0.4,0.4,1,0,1.4C187.6,239.8,187.3,239.9,187.1,239.9z"/>
		</g>
		<g>
			<path class="st3" d="M191.9,235.1c-0.3,0-0.5-0.1-0.7-0.3c-6.2-6.2-16.2-6.2-22.4,0c-0.4,0.4-1,0.4-1.4,0s-0.4-1,0-1.4
				c7-7,18.3-7,25.2,0c0.4,0.4,0.4,1,0,1.4C192.4,235,192.2,235.1,191.9,235.1z"/>
		</g>
	</g>
	<circle class="st3" cx="36" cy="256" r="4"/>
	<g>
		<path class="st3" d="M43.1,249.9c-0.3,0-0.5-0.1-0.7-0.3c-3.5-3.5-9.2-3.5-12.7,0c-0.4,0.4-1,0.4-1.4,0s-0.4-1,0-1.4
			c4.3-4.3,11.3-4.3,15.6,0c0.4,0.4,0.4,1,0,1.4C43.6,249.8,43.3,249.9,43.1,249.9z"/>
	</g>
	<g>
		<path class="st3" d="M47.9,245.1c-0.3,0-0.5-0.1-0.7-0.3c-6.2-6.2-16.2-6.2-22.4,0c-0.4,0.4-1,0.4-1.4,0s-0.4-1,0-1.4
			c7-7,18.3-7,25.2,0c0.4,0.4,0.4,1,0,1.4C48.4,245,48.2,245.1,47.9,245.1z"/>
	</g>
	<path class="st3" d="M24,208h24c2.2,0,4,1.8,4,4v8c0,2.2-1.8,4-4,4H24c-2.2,0-4-1.8-4-4v-8C20,209.8,21.8,208,24,208z"/>
	<circle class="st3" cx="36" cy="200" r="4"/>
	<g>
		<path class="st3" d="M43.1,193.9c-0.3,0-0.5-0.1-0.7-0.3c-3.5-3.5-9.2-3.5-12.7,0c-0.4,0.4-1,0.4-1.4,0s-0.4-1,0-1.4
			c4.3-4.3,11.3-4.3,15.6,0c0.4,0.4,0.4,1,0,1.4C43.6,193.8,43.3,193.9,43.1,193.9z"/>
	</g>
	<g>
		<path class="st3" d="M47.9,189.1c-0.3,0-0.5-0.1-0.7-0.3c-6.2-6.2-16.2-6.2-22.4,0c-0.4,0.4-1,0.4-1.4,0s-0.4-1,0-1.4
			c7-7,18.3-7,25.2,0c0.4,0.4,0.4,1,0,1.4C48.4,189,48.2,189.1,47.9,189.1z"/>
	</g>
	<circle class="st3" cx="36" cy="308.8" r="4"/>
	<g>
		<path class="st3" d="M43.1,302.8c-0.3,0-0.5-0.1-0.7-0.3c-3.5-3.5-9.2-3.5-12.7,0c-0.4,0.4-1,0.4-1.4,0s-0.4-1,0-1.4
			c4.3-4.3,11.3-4.3,15.6,0c0.4,0.4,0.4,1,0,1.4C43.6,302.7,43.3,302.8,43.1,302.8z"/>
	</g>
	<g>
		<path class="st3" d="M47.9,297.9c-0.3,0-0.5-0.1-0.7-0.3c-6.2-6.2-16.2-6.2-22.4,0c-0.4,0.4-1,0.4-1.4,0s-0.4-1,0-1.4
			c3.4-3.4,7.8-5.2,12.6-5.2s9.2,1.9,12.6,5.2c0.4,0.4,0.4,1,0,1.4C48.4,297.8,48.2,297.9,47.9,297.9z"/>
	</g>
	<circle class="st3" cx="36" cy="360" r="4"/>
	<g>
		<path class="st3" d="M43.1,353.9c-0.3,0-0.5-0.1-0.7-0.3c-3.5-3.5-9.2-3.5-12.7,0c-0.4,0.4-1,0.4-1.4,0s-0.4-1,0-1.4
			c4.3-4.3,11.3-4.3,15.6,0c0.4,0.4,0.4,1,0,1.4C43.6,353.8,43.3,353.9,43.1,353.9z"/>
	</g>
	<g>
		<path class="st3" d="M47.9,349.1c-0.3,0-0.5-0.1-0.7-0.3c-6.2-6.2-16.2-6.2-22.4,0c-0.4,0.4-1,0.4-1.4,0s-0.4-1,0-1.4
			c7-7,18.3-7,25.2,0c0.4,0.4,0.4,1,0,1.4C48.4,349,48.2,349.1,47.9,349.1z"/>
	</g>
	<g>
		<g>
			<line class="st5" x1="50" y1="272" x2="73.4" y2="272"/>
			<g>
				<polygon class="st3" points="73,269 73,275 76,272 				"/>
			</g>
		</g>
	</g>
	<g>
		<g>
			<polyline class="st4" points="49,326 84,326 84,302.6 			"/>
			<g>
				<polygon class="st3" points="81,303 87,303 84,300 				"/>
			</g>
		</g>
	</g>
	<g>
		<g>
			<polyline class="st4" points="49,376 84,376 84,350.6 			"/>
			<g>
				<polygon class="st3" points="81,351 87,351 84,348 				"/>
			</g>
		</g>
	</g>
	<g>
		<g>
			<polyline class="st4" points="49,156.8 84,156.8 84,186.2 			"/>
			<g>
				<polygon class="st3" points="87,185.8 81,185.8 84,188.8 				"/>
			</g>
		</g>
	</g>
	<path class="st3" d="M24,148.8h24c2.2,0,4,1.8,4,4v8c0,2.2-1.8,4-4,4H24c-2.2,0-4-1.8-4-4v-8C20,150.6,21.8,148.8,24,148.8z"/>
	<circle class="st3" cx="36" cy="140.8" r="4"/>
	<g>
		<path class="st3" d="M43.1,134.8c-0.3,0-0.5-0.1-0.7-0.3c-3.5-3.5-9.2-3.5-12.7,0c-0.4,0.4-1,0.4-1.4,0s-0.4-1,0-1.4
			c4.3-4.3,11.3-4.3,15.6,0c0.4,0.4,0.4,1,0,1.4C43.6,134.7,43.3,134.8,43.1,134.8z"/>
	</g>
	<g>
		<path class="st3" d="M47.9,129.9c-0.3,0-0.5-0.1-0.7-0.3c-6.2-6.2-16.2-6.2-22.4,0c-0.4,0.4-1,0.4-1.4,0s-0.4-1,0-1.4
			c3.4-3.4,7.8-5.2,12.6-5.2s9.2,1.9,12.6,5.2c0.4,0.4,0.4,1,0,1.4C48.4,129.8,48.2,129.9,47.9,129.9z"/>
	</g>
	<path class="st3" d="M24,368h24c2.2,0,4,1.8,4,4v8c0,2.2-1.8,4-4,4H24c-2.2,0-4-1.8-4-4v-8C20,369.8,21.8,368,24,368z"/>
	<path class="st3" d="M24,316.8h24c2.2,0,4,1.8,4,4v8c0,2.2-1.8,4-4,4H24c-2.2,0-4-1.8-4-4v-8C20,318.6,21.8,316.8,24,316.8z"/>
	<path class="st3" d="M24,264h24c2.2,0,4,1.8,4,4v8c0,2.2-1.8,4-4,4H24c-2.2,0-4-1.8-4-4v-8C20,265.8,21.8,264,24,264z"/>
	<g>
		<g>
			<path class="st3" d="M195.2,286.3H88.1c-1,0-1.7-0.8-1.7-1.7V257c0-1,0.8-1.7,1.7-1.7h107.1c1,0,1.7,0.8,1.7,1.7v27.6
				C196.9,285.6,196.2,286.3,195.2,286.3z M89.8,282.9h103.6v-24.2H89.8V282.9z"/>
		</g>
		<g>
			<g>
				<rect x="88.1" y="257" class="st2" width="107.1" height="27.6"/>
			</g>
			<g>
				<path class="st3" d="M195.2,285H88.1c-0.2,0-0.4-0.2-0.4-0.4V257c0-0.2,0.2-0.4,0.4-0.4h107.1c0.2,0,0.4,0.2,0.4,0.4v27.6
					C195.6,284.8,195.5,285,195.2,285z M88.6,284.2h106.2v-26.8H88.6V284.2z"/>
			</g>
		</g>
		<g>
			<rect x="88.1" y="260" class="st3" width="107.1" height="0.9"/>
		</g>
		<g>
			<path class="st3" d="M191.8,281.6H91.6c-0.2,0-0.4-0.2-0.4-0.4v-20.7c0-0.2,0.2-0.4,0.4-0.4h100.2c0.2,0,0.4,0.2,0.4,0.4v20.7
				C192.2,281.4,192,281.6,191.8,281.6z M92,280.7h99.3v-19.9H92V280.7z"/>
		</g>
		<g>
			<rect x="91.6" y="266.9" class="st3" width="100.2" height="0.9"/>
		</g>
		<g>
			<rect x="108.4" y="267.3" class="st3" width="0.9" height="13.8"/>
		</g>
		<g>
			<rect x="123.8" y="267.3" class="st3" width="0.9" height="13.8"/>
		</g>
		<g>
			<rect x="148.2" y="267.3" class="st3" width="0.9" height="13.8"/>
		</g>
		<g>
			<rect x="133" y="272.5" class="st3" width="6.9" height="3.5"/>
		</g>
		<g>
			<circle class="st3" cx="112.3" cy="262.2" r="3.5"/>
		</g>
		<g>
			<polygon class="st3" points="108.9,261.5 111.4,210.3 113.2,210.3 115.7,261.5 			"/>
		</g>
		<g>
			<g>
				<circle class="st3" cx="174.5" cy="274.2" r="1.7"/>
			</g>
			<g>
				<circle class="st3" cx="183.1" cy="274.2" r="1.7"/>
			</g>
			<g>
				<circle class="st3" cx="165.8" cy="274.2" r="1.7"/>
			</g>
		</g>
	</g>
	<g>
		<path class="st15" d="M320.1,158.1v3.6H315v14.6h-3.8v-14.6h-5.5v-3.6H320.1z"/>
		<path class="st15" d="M332.1,163.1c0.6,0.3,1.2,0.7,1.6,1.3c0.3,0.5,0.6,1,0.6,1.5s0.1,1.4,0.1,2.6v7.8h-3.4v-8.1
			c0-0.7-0.1-1.3-0.3-1.7c-0.3-0.6-0.9-0.9-1.7-0.9c-0.9,0-1.5,0.3-2,0.9c-0.5,0.6-0.7,1.5-0.7,2.6v7.2H323v-18.2h3.2v6.4
			c0.5-0.8,1.2-1.1,1.8-1.4c0.6-0.3,1.3-0.5,2-0.5C330.8,162.6,331.5,162.8,332.1,163.1z"/>
		<path class="st15" d="M341.4,161.7h-3.8v-3.6h3.8V161.7z M337.6,162.8h3.8v13.6h-3.8V162.8z"/>
		<path class="st15" d="M355,163.7c0.9,0.7,1.3,1.9,1.3,3.6v9.1h-3.5v-8.2c0-0.7-0.1-1.2-0.3-1.6c-0.3-0.7-1-1-1.9-1
			c-1.2,0-2,0.5-2.4,1.5c-0.2,0.5-0.3,1.2-0.3,2v7.3h-3.4v-13.6h3.3v2.1c0.4-0.7,0.9-1.2,1.2-1.5c0.7-0.5,1.6-0.8,2.7-0.8
			C353,162.6,354.1,162.9,355,163.7z"/>
		<path class="st15" d="M366.2,162.9c0.8,0.4,1.5,1,2,1.9V163h3.7v12.7c0,1.7-0.6,3-1.2,3.9c-1,1.5-2.9,2.3-5.7,2.3
			c-1.7,0-3.1-0.3-4.2-1c-1.1-0.7-1.7-1.5-1.8-2.8h3.8c0.1,0.4,0.3,0.5,0.5,0.7c0.4,0.3,1,0.5,1.9,0.5c1.3,0,2.1-0.4,2.5-1.3
			c0.3-0.5,0.4-1.5,0.4-2.7v-0.9c-0.3,0.6-0.7,1-1.1,1.3c-0.7,0.5-1.6,0.8-2.7,0.8c-1.7,0-3.1-0.6-4.1-1.8c-1-1.2-1.5-2.9-1.5-4.9
			c0-2,0.5-3.7,1.5-5c1-1.4,2.4-2,4.2-2C365.1,162.6,365.7,162.7,366.2,162.9z M367.4,172.5c0.6-0.6,0.8-1.6,0.8-3
			c0-1.3-0.3-2.2-0.8-2.9s-1.2-1-2.1-1c-1.2,0-2.1,0.6-2.5,1.7c-0.2,0.6-0.4,1.4-0.4,2.3c0,0.8,0.1,1.5,0.4,2.1
			c0.5,1.1,1.3,1.7,2.5,1.7C366.2,173.5,366.8,173.2,367.4,172.5z"/>
		<path class="st15" d="M377.7,170.6c0.1,0.8,0.3,1.6,0.7,1.9c0.6,0.7,1.6,1.1,3.1,1.1c0.9,0,1.6-0.1,2.1-0.3c1-0.4,1.6-1,1.6-2
			c0-0.6-0.3-1-0.8-1.3c-0.5-0.3-1.3-0.6-2.4-0.8l-1.9-0.4c-1.8-0.4-3.1-0.9-3.8-1.3c-1.2-0.8-1.8-2.1-1.8-3.8
			c0-1.6,0.6-2.9,1.7-3.9c1.1-1,2.8-1.6,5-1.6c1.9,0,3.4,0.5,4.7,1.5c1.3,1,2,2.3,2.1,4.1h-3.5c-0.1-1.1-0.5-1.7-1.4-2.1
			c-0.6-0.3-1.3-0.4-2.2-0.4c-1,0-1.7,0.2-2.3,0.6c-0.6,0.4-0.9,0.9-0.9,1.6c0,0.6,0.3,1.1,0.8,1.4c0.4,0.2,1.1,0.4,2.3,0.7l3,0.7
			c1.3,0.3,2.3,0.7,3,1.3c1,0.8,1.6,2,1.6,3.6c0,1.6-0.6,2.9-1.8,4c-1.2,1.1-3,1.6-5.2,1.6c-2.3,0-4.1-0.5-5.4-1.6
			c-1.3-1-2-2.6-2-4.4H377.7z"/>
		<path class="st15" d="M402.5,164.5c1.1,1.1,1.6,2.8,1.6,4.9c0,2.3-0.5,4-1.6,5.2c-1,1.2-2.4,1.8-4.1,1.8c-1.1,0-1.9-0.3-2.6-0.8
			c-0.4-0.3-0.9-0.7-1.3-1.3v6.8h-3.4V163h3.4v2c0.4-0.6,0.8-1,1.2-1.3c0.8-0.6,1.7-0.9,2.7-0.9
			C400.1,162.8,401.4,163.4,402.5,164.5z M399.9,166.9c-0.5-0.8-1.2-1.2-2.3-1.2c-1.3,0-2.1,0.6-2.6,1.8c-0.2,0.6-0.4,1.4-0.4,2.4
			c0,1.5,0.4,2.6,1.2,3.2c0.5,0.4,1.1,0.5,1.7,0.5c1,0,1.7-0.4,2.2-1.1c0.5-0.7,0.8-1.7,0.8-2.9
			C400.6,168.6,400.3,167.7,399.9,166.9z"/>
		<path class="st15" d="M415.8,163.2c0.9,0.4,1.7,1,2.3,1.9c0.5,0.8,0.9,1.7,1,2.7c0.1,0.6,0.1,1.8,0.1,3h-9.5
			c0.1,1.3,0.5,1.8,1.4,2.4c0.5,0.3,1.1,0.5,1.9,0.5c0.8,0,1.4-0.2,1.9-0.6c0.3-0.2,0.5-0.5,0.7-0.9h3.5c-0.1,0.8-0.5,1.6-1.3,2.3
			c-1.2,1.3-2.8,1.9-4.9,1.9c-1.7,0-3.3-0.5-4.6-1.6c-1.3-1.1-2-2.8-2-5.2c0-2.2,0.6-4,1.8-5.2c1.2-1.2,2.7-1.8,4.7-1.8
			C413.8,162.6,414.8,162.8,415.8,163.2z M410.7,166.1c-0.5,0.5-0.8,1.2-0.9,2h5.9c-0.1-0.9-0.4-1.6-0.9-2.1c-0.5-0.5-1.2-0.7-2-0.7
			C411.8,165.4,411.1,165.6,410.7,166.1z"/>
		<path class="st15" d="M427.3,168c0.6-0.1,1.1-0.2,1.3-0.3c0.5-0.2,0.7-0.5,0.7-1c0-0.5-0.2-0.9-0.5-1.1c-0.4-0.2-0.9-0.3-1.6-0.3
			c-0.8,0-1.3,0.2-1.7,0.6c-0.2,0.3-0.4,0.6-0.5,1.1h-3.2c0.1-1.1,0.4-2,0.9-2.7c0.9-1.1,2.4-1.7,4.5-1.7c1.4,0,2.6,0.3,3.7,0.8
			c1.1,0.6,1.6,1.6,1.6,3.2v6c0,0.4,0,0.9,0,1.5c0,0.4,0.1,0.8,0.2,0.9c0.1,0.2,0.3,0.3,0.5,0.4v0.9h-3.6c-0.1-0.3-0.2-0.9-0.2-1.1
			c0-0.2-0.1-0.5-0.1-0.8c-0.5,0.5-1,0.9-1.6,1.3c-0.7,0.4-1.5,0.6-2.4,0.6c-1.1,0-2.1-0.3-2.8-1c-0.7-0.7-1.1-1.6-1.1-2.9
			c0-1.6,0.6-2.8,1.8-3.5c0.7-0.4,1.6-0.7,2.9-0.8L427.3,168z M429.4,169.6c-0.2,0.1-0.4,0.2-0.6,0.3c-0.2,0.1-0.5,0.2-0.9,0.2
			l-0.8,0.1c-0.7,0.1-1.2,0.3-1.5,0.5c-0.5,0.3-0.8,0.8-0.8,1.4c0,0.6,0.2,1,0.5,1.3s0.7,0.4,1.2,0.4c0.7,0,1.4-0.2,2-0.6
			c0.6-0.4,0.9-1.2,0.9-2.4V169.6z"/>
		<path class="st15" d="M435.5,158.1h3.4v9.7l4.9-5.3h4.3l-5.1,5.2l5,8.6h-4.2l-3.2-5.9l-1.6,1.5v4.4h-3.4V158.1z"/>
		<path class="st15" d="M301.2,176.4h-7.4v6.1l-6-6.1h-11.2v-18.5h24.6V176.4z M299.1,160h-20.3v14.3h9.6l3.6,3.8v-3.8h7V160z"/>
		<text transform="matrix(1 0 0 1 449.8658 165.216)" class="st15 st16 st17">TM</text>
	</g>
</g>
<g id="Layer_2">
</g>
<g id="Layer_3">
	<g>
		<g>
			<g>
				<path class="st10" d="M400.8,99.3c0,3.3-12.8,6-28.5,6s-28.5-2.7-28.5-6v-14h57V99.3z"/>
			</g>
		</g>
		<g>
			<g>
				<ellipse class="st18" cx="372.3" cy="85.3" rx="28.5" ry="6"/>
			</g>
		</g>
		<g>
			<g>
				<path class="st10" d="M400.8,78.3c0,3.3-12.8,6-28.5,6s-28.5-2.7-28.5-6v-14h57V78.3z"/>
			</g>
		</g>
		<g>
			<g>
				<ellipse class="st18" cx="372.3" cy="64.3" rx="28.5" ry="6"/>
			</g>
		</g>
		<g>
			<g>
				<path class="st10" d="M400.8,57.3c0,3.3-12.8,6-28.5,6s-28.5-2.7-28.5-6v-14h57V57.3z"/>
			</g>
		</g>
		<g>
			<g>
				<ellipse class="st18" cx="372.3" cy="43.3" rx="28.5" ry="6"/>
			</g>
		</g>
		<g>
			<g>
				<path class="st11" d="M400.8,99.3c0,3.3-12.8,6-28.5,6s-28.5-2.7-28.5-6v-14h57V99.3z"/>
			</g>
		</g>
		<g>
			<g>
				<ellipse class="st19" cx="372.3" cy="85.3" rx="28.5" ry="6"/>
			</g>
		</g>
		<g>
			<g>
				<path class="st11" d="M400.8,78.3c0,3.3-12.8,6-28.5,6s-28.5-2.7-28.5-6v-14h57V78.3z"/>
			</g>
		</g>
		<g>
			<g>
				<ellipse class="st19" cx="372.3" cy="64.3" rx="28.5" ry="6"/>
			</g>
		</g>
		<g>
			<g>
				<path class="st11" d="M400.8,57.3c0,3.3-12.8,6-28.5,6s-28.5-2.7-28.5-6v-14h57V57.3z"/>
			</g>
		</g>
		<g>
			<g>
				<ellipse class="st19" cx="372.3" cy="43.3" rx="28.5" ry="6"/>
			</g>
		</g>
	</g>
	<g>
		<path class="st20" d="M671.9,304.7h-124c-2.2,0-4-1.8-4-4v-76c0-2.2,1.8-4,4-4h124c2.2,0,4,1.8,4,4v76
			C675.9,302.9,674.1,304.7,671.9,304.7z"/>
		<polygon class="st10" points="627.9,316.7 627.9,304.7 591.9,304.7 591.9,316.7 579.9,328.7 639.9,328.7 		"/>
		<rect x="579.9" y="328.7" class="st10" width="60" height="6"/>
		<path class="st11" d="M671.9,304.7h-124c-2.2,0-4-1.8-4-4v-76c0-2.2,1.8-4,4-4h124c2.2,0,4,1.8,4,4v76
			C675.9,302.9,674.1,304.7,671.9,304.7z"/>
		<polygon class="st11" points="627.9,316.7 627.9,304.7 591.9,304.7 591.9,316.7 579.9,328.7 639.9,328.7 		"/>
		<rect x="579.9" y="328.7" class="st11" width="60" height="6"/>
		<line class="st11" x1="612.9" y1="316.7" x2="627.9" y2="316.7"/>
		<rect x="549.9" y="226.7" class="st19" width="120" height="72"/>
	</g>
	<g>
		<g>
			<g>
				<polygon class="st1" points="563.9,280 561.2,277.3 585.6,252.8 593.3,260.5 603.8,250.1 606.5,252.8 593.3,266 585.6,258.3 
									"/>
			</g>
			<g>
				<g>
					<polygon class="st1" points="600.4,247.9 608.7,256.1 608.7,247.9 					"/>
				</g>
			</g>
		</g>
		<rect x="574.1" y="278.6" class="st1" width="15.4" height="7.7"/>
		<rect x="597.2" y="270.9" class="st1" width="15.4" height="15.4"/>
		<rect x="620.2" y="263.2" class="st1" width="15.4" height="23.1"/>
		<rect x="643.3" y="244" class="st1" width="15.4" height="42.3"/>
	</g>
	<g>
		<g>
			<g>
				<path class="st22" d="M552,180.6l9.9,20.8l9.8-20.8h6.1v0.5c-3.5,0.5-3.7,0.8-3.6,5.3l0.4,14.5c0.1,4.5,0.2,4.8,3.8,5.3v0.5
					h-10.5v-0.5c3.4-0.5,3.5-0.8,3.5-5.3l-0.2-16.6H571l-10.1,22h-0.4l-9.7-21.3h-0.1l-0.4,11.1c-0.2,4.2,0,6.4,0.2,7.6
					c0.2,1.5,1.2,2,3.8,2.5v0.5h-9.5v-0.5c2.2-0.4,3-1,3.5-2.5c0.3-1.2,0.6-3.7,0.8-7.6l0.4-8.4c0.2-5.3,0-6-3.8-6.5v-0.5H552z"/>
				<path class="st22" d="M588.3,188.2L588.3,188.2l3.4,8.8H585L588.3,188.2z M585.4,206.7v-0.5l-0.7-0.2c-1.9-0.4-2.2-0.8-1.7-2.9
					c0.3-1.4,1.2-4.1,1.6-5.1h7.4c1,2.7,2,5.4,2.2,6.2c0.3,1.1,0.2,1.4-1,1.7l-1.1,0.3v0.5h8.2v-0.5c-2.1-0.5-2.6-0.8-3.7-3.6
					c-1.4-3.5-2.9-7.9-4.6-12.2l-2.6-6.6l-0.4,0.1l-7.1,18.2c-1.3,3.4-1.7,3.6-4,4.1v0.5H585.4z"/>
				<path class="st22" d="M613.4,184.3c0.9,0,1.2-0.2,1.8-0.9h0.3c0,1.4,0.2,4,0.4,6l-0.5,0.1c-0.6-1.7-1-2.6-1.5-3.3
					c-0.6-0.7-1.6-1.2-3.7-1.2h-2.6v16.7c0,3.7,0.3,4.1,3.7,4.5v0.5h-9.9v-0.5c3.2-0.4,3.5-0.8,3.5-4.5V185h-1.8
					c-3.1,0-3.9,0.7-4.4,1.4c-0.4,0.6-1,1.6-1.4,3.1h-0.5c0.1-2.1,0.3-4.3,0.4-6.1h0.3c0.5,0.8,1,0.9,1.9,0.9H613.4z"/>
				<path class="st22" d="M622.7,202.2c0,2,0.2,2.8,0.8,3.2c0.7,0.6,1.9,0.6,3.4,0.6c1.7,0,3.2-0.5,4-1.3c0.6-0.7,1.2-1.8,2-3.4
					l0.5,0.1c-0.2,1-0.9,4.5-1.2,5.4h-15.4v-0.5c2.9-0.4,3.2-0.8,3.2-4.5v-12.4c0-3.7-0.3-4.1-3.2-4.5v-0.5h9.2v0.5
					c-3,0.4-3.2,0.8-3.2,4.5V202.2z"/>
				<path class="st22" d="M643.3,188.2L643.3,188.2l3.4,8.8H640L643.3,188.2z M640.4,206.7v-0.5l-0.7-0.2c-1.9-0.4-2.2-0.8-1.7-2.9
					c0.3-1.4,1.2-4.1,1.6-5.1h7.4c1,2.7,2,5.4,2.2,6.2c0.3,1.1,0.2,1.4-1,1.7l-1.1,0.3v0.5h8.2v-0.5c-2.1-0.5-2.6-0.8-3.7-3.6
					c-1.4-3.5-2.9-7.9-4.6-12.2l-2.6-6.6l-0.4,0.1l-7.1,18.2c-1.3,3.4-1.7,3.6-4,4.1v0.5H640.4z"/>
				<path class="st22" d="M662.1,186.1c0-0.7,0.1-0.8,0.3-0.9c0.3-0.1,0.8-0.2,1.9-0.2c4.1,0,4.9,2.6,4.9,4.7c0,3-1.7,4.5-5,4.5
					h-2.2V186.1z M656.4,184.3v0.5c2.7,0.4,2.9,0.8,3,4.5v12.4c0,3.7-0.3,4.1-3.2,4.5v0.5h7.7c2.7,0,4.9-0.3,6.6-1.3
					c2-1.1,3.2-2.9,3.2-5.3c0-3.5-2.8-5.4-6-5.8v-0.1c1.7-0.4,4.6-1.9,4.6-4.9c0-1.7-0.6-3-1.8-3.8c-1.1-0.8-2.7-1.2-5-1.2H656.4z
					 M664.1,194.9c3.6,0,6.3,1.8,6.3,5.7c0,3.8-2.4,5.4-5.4,5.4c-2.5,0-3-0.7-3-3.4v-7.7H664.1z"/>
			</g>
		</g>
		<g>
			<path class="st22" d="M673.6,187.4c0-1.5,1.2-2.7,2.7-2.7c1.5,0,2.7,1.2,2.7,2.7c0,1.5-1.2,2.7-2.7,2.7
				C674.8,190.1,673.6,188.9,673.6,187.4z M678.5,187.4c0-1.3-1-2.3-2.3-2.3c-1.2,0-2.3,1-2.3,2.3c0,1.3,1.1,2.3,2.3,2.3
				C677.5,189.7,678.5,188.7,678.5,187.4z M677.5,188.9h-0.5l-0.9-1.4h-0.5v1.4h-0.4v-2.9h1.3c0.5,0,1,0.1,1,0.8
				c0,0.6-0.4,0.8-0.9,0.8L677.5,188.9z M676.2,187.1c0.4,0,1,0.1,1-0.4c0-0.3-0.4-0.4-0.7-0.4h-0.8v0.8H676.2z"/>
		</g>
	</g>
</g>
</svg>
